{"title":"Teen Beach Movie 2013 WEBRip 480p x264 AAC - VYTO [P2PDL]","uid":8795434,"size":322246994,"categoryP":"video","categoryS":"movies","magnet":"?xt=urn:btih:9780d3bb1148051213be837fc822b0fbbf50bc4d&amp;dn=Teen+Beach+Movie+2013+WEBRip+480p+x264+AAC+-+VYTO+%5BP2PDL%5D&amp;tr=udp%3A%2F%2Ftracker.openbittorrent.com%3A80&amp;tr=udp%3A%2F%2Fopen.demonii.com%3A1337&amp;tr=udp%3A%2F%2Ftracker.coppersurfer.tk%3A6969&amp;tr=udp%3A%2F%2Fexodus.desync.com%3A6969","seeders":2,"leechers":1,"uploader":"Vitamin_X","files":-1,"time":1376063255,"description":"_______ Visit us at our Semi Public Bittorrent Community ________\n  &lt;a href=&quot;\nhttp://p2pdl.com&quot; rel=&quot;nofollow&quot; target=&quot;_NEW&quot;&gt;\nhttp://p2pdl.com&lt;/a&gt;  _____________________________ &lt;a href=&quot; http://p2pdl.com&quot; rel=&quot;nofollow&quot; target=&quot;_NEW&quot;&gt; http://p2pdl.com&lt;/a&gt;\n\n\nTeen Beach Movie 2013 WEBRip 480p x264 AAC - VYTO\n\n\nGenre: Family | Musical\nPlot: Life's a beach for surfers Brady and McKenzie -- until \na rogue wave magically transports them inside the classic '60s \nbeach party flick, Wet Side Story, where a full-blown rivalry \nbetween bikers and surfers threatens to erupt. There, amidst \na sea of surfing, singing and dancing, Brady and Mack \naccidentally change the storyline, and the film's dreamy \nhero and heroine fall for them instead of for each other!\nDirector: Jeffrey Hornaday\nStars: Ross Lynch, Maia Mitchell, Grace Phipps\nRated: N/A\n\n\nIMDb: &lt;a href=&quot;\nhttp://www.imdb.com/title/tt2325989/&quot; rel=&quot;nofollow&quot; target=&quot;_NEW&quot;&gt;\nhttp://www.imdb.com/title/tt2325989/&lt;/a&gt;\n\nGeneral\nFormat                         : MPEG-4\nFile size                      : 301 MiB\nDuration                       : 1h 35mn\nOverall bit rate mode          : Variable\nOverall bit rate               : 442 Kbps\n\nVideo\nFormat                         : AVC\nBit rate                       : 399 Kbps\nWidth                          : 720 pixels\nHeight                         : 400 pixels\nDisplay aspect ratio           : 16:9\nFrame rate mode                : Constant\nFrame rate                     : 23.976 fps\nBit depth                      : 10 bits\nStream size                    : 271 MiB (90%)\nWriting library                : x264 core 133 r2334 a3ac64b\n\nAudio\nFormat                         : AAC\nBit rate                       : 40.0 Kbps\nChannel(s)                     : 2 channels\nChannel positions              : Front: L R\nSampling rate                  : 48.0 KHz / 24.0 KHz\nStream size                    : 27.2 MiB (9%)\nLanguage                       : English\n\n\nSubtitle                       : Yes (English)\nSource                         : WEB-DL.H264-TVSmash\n &lt;a href=&quot;\nhttp://ultraimg.com/images/JHo4b.jpg&quot; rel=&quot;nofollow&quot; target=&quot;_NEW&quot;&gt;\nhttp://ultraimg.com/images/JHo4b.jpg&lt;/a&gt; &lt;a href=&quot;\nhttp://ultraimg.com/images/armg.jpg&quot; rel=&quot;nofollow&quot; target=&quot;_NEW&quot;&gt;\nhttp://ultraimg.com/images/armg.jpg&lt;/a&gt; &lt;a href=&quot;\nhttp://ultraimg.com/images/oLzV0.jpg&quot; rel=&quot;nofollow&quot; target=&quot;_NEW&quot;&gt;\nhttp://ultraimg.com/images/oLzV0.jpg&lt;/a&gt; &lt;a href=&quot;\nhttp://ultraimg.com/images/tAom.jpg&quot; rel=&quot;nofollow&quot; target=&quot;_NEW&quot;&gt;\nhttp://ultraimg.com/images/tAom.jpg&lt;/a&gt; &lt;a href=&quot;\nhttp://ultraimg.com/images/fdMXw.jpg&quot; rel=&quot;nofollow&quot; target=&quot;_NEW&quot;&gt;\nhttp://ultraimg.com/images/fdMXw.jpg&lt;/a&gt; &lt;a href=&quot;\nhttp://ultraimg.com/images/mngad.jpg&quot; rel=&quot;nofollow&quot; target=&quot;_NEW&quot;&gt;\nhttp://ultraimg.com/images/mngad.jpg&lt;/a&gt; &lt;a href=&quot;\nhttp://ultraimg.com/images/CeMEL.jpg&quot; rel=&quot;nofollow&quot; target=&quot;_NEW&quot;&gt;\nhttp://ultraimg.com/images/CeMEL.jpg&lt;/a&gt; &lt;a href=&quot;\nhttp://ultraimg.com/images/wJQZ5.jpg&quot; rel=&quot;nofollow&quot; target=&quot;_NEW&quot;&gt;\nhttp://ultraimg.com/images/wJQZ5.jpg&lt;/a&gt;\n\n----------------------------------------------------------------------------------------------------\n\n\nEncoded using revolutionary 10bit encoding, which enables us to provide you more crispier \nand sharper images at small sizes, just make sure you follow our instructions without a fault.\nRecommend to you to use latest version of VLC player. Install K-Lite Codec Pack or shark007 codecs\nin case of any kind of problem in playback (For non-VLC Media Player users). Alternatively, install\nCore AVC codecs, the fastest decoder that there is coupled with Community Center Codec Pack and play\non Windows Media Player Classic. Check sample to be sure.\nEnjoy!\n\nEncoder Notes:Looking For Early Access To Anything You Can Provide DVDScr, R5, DVDR, BluRay, Direct\nAudio, Music Releases and Seedboxes. We require dedicated servers, so as to do more \nand fast releases of movies.\nIf You Got anything to offer please contact us at &quot;&lt;a class=&quot;__cf_email__&quot; href=&quot;/cdn-cgi/l/email-protection&quot; data-cfemail=&quot;e2929085a28a97918acc818d8f&quot;&gt;[email&amp;#160;protected]&lt;/a&gt;&lt;script cf-hash='f9e31' type=&quot;text/javascript&quot;&gt;\n/* &lt;![CDATA[ */!function(){try{var t=&quot;currentScript&quot;in document?document.currentScript:function(){for(var t=document.getElementsByTagName(&quot;script&quot;),e=t.length;e--;)if(t[e].getAttribute(&quot;cf-hash&quot;))return t[e]}();if(t&amp;&amp;t.previousSibling){var e,r,n,i,c=t.previousSibling,a=c.getAttribute(&quot;data-cfemail&quot;);if(a){for(e=&quot;&quot;,r=parseInt(a.substr(0,2),16),n=2;a.length-n;n+=2)i=parseInt(a.substr(n,2),16)^r,e+=String.fromCharCode(i);e=document.createTextNode(e),c.parentNode.replaceChild(e,c)}}}catch(u){}}();/* ]]&gt; */&lt;/script&gt;&quot;.\n\nFace book Fan Page:  \nSearch for P2PDL on FB.","torrent":{"xt":"urn:btih:9780d3bb1148051213be837fc822b0fbbf50bc4d","amp;dn":"Teen+Beach+Movie+2013+WEBRip+480p+x264+AAC+-+VYTO+%5BP2PDL%5D","amp;tr":["udp%3A%2F%2Ftracker.openbittorrent.com%3A80","udp%3A%2F%2Fopen.demonii.com%3A1337","udp%3A%2F%2Ftracker.coppersurfer.tk%3A6969","udp%3A%2F%2Fexodus.desync.com%3A6969"],"infoHash":"9780d3bb1148051213be837fc822b0fbbf50bc4d","infoHashBuffer":{"type":"Buffer","data":[151,128,211,187,17,72,5,18,19,190,131,127,200,34,176,251,191,80,188,77]},"announce":[],"urlList":[]}}